<?xml version="1.0" standalone="no"?><svg xmlnsXlink="http://www.w3.org/1999/xlink" xmlns="http://www.w3.org/2000/svg" viewBox="0 0 1000 238.0879218472469" preserveAspectRatio="xMaxYMax slice"><g transform="scale(0.8880994671403197)"><rect x="0" y="0" width="1126" height="268.0952380952381" fill="#ffffff"/><rect x="0" y="0" width="53.62" height="53.62" fill="#246794"/><rect x="0" y="0" width="53.62" height="53.62" fill="#086fdd"/><rect x="53.61904761904762" y="0" width="53.61904761904762" height="53.61904761904762" fill="#ffffff"/><rect x="53.62" y="0" width="26.81" height="26.81" fill="#3998fe"/><path d="M 53.62 26.81 A 26.81 26.81 0 0 1 80.42999999999999 0 L 80.42999999999999 6.7025 A 20.107499999999998 20.107499999999998 0 0 0 60.3225 26.81" fill="#086fdd"/><rect x="80.43" y="0" width="26.81" height="26.81" fill="#3998fe"/><path d="M 80.43 0 A 26.81 26.81 0 0 1 107.24000000000001 26.81 L 100.53750000000001 26.81 A 20.107499999999998 20.107499999999998 0 0 0 80.43 6.7025" fill="#086fdd"/><rect x="53.62" y="26.81" width="26.81" height="26.81" fill="#086fdd"/><path d="M 53.62 26.81 A 26.81 26.81 0 0 0 80.42999999999999 53.62 L 80.42999999999999 46.9175 A 20.107499999999998 20.107499999999998 0 0 1 60.3225 26.81" fill="#246794"/><rect x="80.43" y="26.81" width="26.81" height="26.81" fill="#246794"/><path d="M 80.43 53.62 A 26.81 26.81 0 0 0 107.24000000000001 26.81 L 100.53750000000001 26.81 A 20.107499999999998 20.107499999999998 0 0 1 80.43 46.9175" fill="#3998fe"/><rect x="107.23809523809524" y="0" width="53.61904761904762" height="53.61904761904762" fill="#ffffff"/><rect x="107.24" y="0" width="26.81" height="26.81" fill="#086fdd"/><path d="M 107.24 26.81 A 26.81 26.81 0 0 1 134.04999999999998 0 L 134.04999999999998 6.7025 A 20.107499999999998 20.107499999999998 0 0 0 113.9425 26.81" fill="#246794"/><rect x="134.05" y="0" width="26.81" height="26.81" fill="#246794"/><path d="M 134.05 0 A 26.81 26.81 0 0 1 160.86 26.81 L 154.1575 26.81 A 20.107499999999998 20.107499999999998 0 0 0 134.05 6.7025" fill="#246794"/><rect x="107.24" y="26.81" width="26.81" height="26.81" fill="#3998fe"/><path d="M 107.24 26.81 A 26.81 26.81 0 0 0 134.04999999999998 53.62 L 134.04999999999998 46.9175 A 20.107499999999998 20.107499999999998 0 0 1 113.9425 26.81" fill="#3998fe"/><rect x="134.05" y="26.81" width="26.81" height="26.81" fill="#086fdd"/><path d="M 134.05 53.62 A 26.81 26.81 0 0 0 160.86 26.81 L 154.1575 26.81 A 20.107499999999998 20.107499999999998 0 0 1 134.05 46.9175" fill="#3998fe"/><rect x="160.86" y="0" width="53.62" height="53.62" fill="#3998fe"/><rect x="160.86" y="0" width="53.62" height="53.62" fill="#246794"/><rect x="214.48" y="0" width="53.62" height="53.62" fill="#246794"/><path d="M 214.48 0 A 53.62 53.62 0 0 1 268.09999999999997 53.62 L 214.48 53.62" fill="#086fdd"/><rect x="268.1" y="0" width="53.62" height="53.62" fill="#086fdd"/><polygon points="321.72,0 321.72,53.62 268.1,53.62" fill="#086fdd"/><rect x="321.7142857142857" y="0" width="53.61904761904762" height="53.61904761904762" fill="#ffffff"/><rect x="321.71" y="0" width="26.81" height="26.81" fill="#086fdd"/><path d="M 321.71 0 A 26.81 26.81 0 0 1 348.52 26.81 L 321.71 26.81" fill="#3998fe"/><rect x="348.52" y="0" width="26.81" height="26.81" fill="#086fdd"/><path d="M 348.52 26.81 A 26.81 26.81 0 0 1  375.33 0 L 375.33 26.81" fill="#246794"/><rect x="321.71" y="26.81" width="26.81" height="26.81" fill="#086fdd"/><path d="M 321.71 53.62 A 26.81 26.81 0 0 0 348.52 26.81 L 321.71 26.81" fill="#3998fe"/><rect x="348.52" y="26.81" width="26.81" height="26.81" fill="#3998fe"/><path d="M 348.52 26.81 A 26.81 26.81 0 0 0 375.33 53.62 L 375.33 26.81" fill="#086fdd"/><rect x="375.33" y="0" width="53.62" height="53.62" fill="#086fdd"/><polygon points="375.33,0 428.95,0 375.33,53.62" fill="#246794"/><rect x="428.95238095238096" y="0" width="53.61904761904762" height="53.61904761904762" fill="#ffffff"/><rect x="428.95" y="0" width="26.81" height="26.81" fill="#246794"/><path d="M 428.95 0 A 26.81 26.81 0 0 0 455.76 26.81 L 455.76 0" fill="#246794"/><rect x="455.76" y="0" width="26.81" height="26.81" fill="#246794"/><path d="M 455.76 26.81 A 26.81 26.81 0 0 0 482.57 0 L 455.76 0" fill="#3998fe"/><rect x="428.95" y="26.81" width="26.81" height="26.81" fill="#3998fe"/><path d="M 428.95 53.62 A 26.81 26.81 0 0 1  455.76 26.81 L 455.76 53.62" fill="#086fdd"/><rect x="455.76" y="26.81" width="26.81" height="26.81" fill="#3998fe"/><path d="M 455.76 26.81 A 26.81 26.81 0 0 1 482.57 53.62 L 455.76 53.62" fill="#246794"/><rect x="482.57142857142856" y="0" width="53.61904761904762" height="53.61904761904762" fill="#ffffff"/><rect x="482.57" y="0" width="26.81" height="26.81" fill="#3998fe"/><path d="M 482.57 26.81 A 26.81 26.81 0 0 1 509.38 0 L 509.38 6.7025 A 20.107499999999998 20.107499999999998 0 0 0 489.2725 26.81" fill="#3998fe"/><rect x="509.38" y="0" width="26.81" height="26.81" fill="#086fdd"/><path d="M 509.38 0 A 26.81 26.81 0 0 1 536.1899999999999 26.81 L 529.4875 26.81 A 20.107499999999998 20.107499999999998 0 0 0 509.38 6.7025" fill="#086fdd"/><rect x="482.57" y="26.81" width="26.81" height="26.81" fill="#3998fe"/><path d="M 482.57 26.81 A 26.81 26.81 0 0 0 509.38 53.62 L 509.38 46.9175 A 20.107499999999998 20.107499999999998 0 0 1 489.2725 26.81" fill="#3998fe"/><rect x="509.38" y="26.81" width="26.81" height="26.81" fill="#3998fe"/><path d="M 509.38 53.62 A 26.81 26.81 0 0 0 536.1899999999999 26.81 L 529.4875 26.81 A 20.107499999999998 20.107499999999998 0 0 1 509.38 46.9175" fill="#086fdd"/><rect x="536.19" y="0" width="53.62" height="53.62" fill="#3998fe"/><rect x="536.19" y="0" width="53.62" height="53.62" fill="#3998fe"/><rect x="589.81" y="0" width="53.62" height="53.62" fill="#246794"/><polygon points="643.43,0 643.43,53.62 589.81,53.62" fill="#246794"/><rect x="643.4285714285714" y="0" width="53.61904761904762" height="53.61904761904762" fill="#ffffff"/><rect x="643.43" y="0" width="26.81" height="26.81" fill="#086fdd"/><path d="M 643.43 0 A 26.81 26.81 0 0 1 670.2399999999999 26.81 L 643.43 26.81" fill="#246794"/><rect x="670.24" y="0" width="26.81" height="26.81" fill="#086fdd"/><path d="M 670.24 26.81 A 26.81 26.81 0 0 1  697.05 0 L 697.05 26.81" fill="#086fdd"/><rect x="643.43" y="26.81" width="26.81" height="26.81" fill="#086fdd"/><path d="M 643.43 53.62 A 26.81 26.81 0 0 0 670.2399999999999 26.81 L 643.43 26.81" fill="#246794"/><rect x="670.24" y="26.81" width="26.81" height="26.81" fill="#086fdd"/><path d="M 670.24 26.81 A 26.81 26.81 0 0 0 697.05 53.62 L 697.05 26.81" fill="#086fdd"/><rect x="697.05" y="0" width="53.62" height="53.62" fill="#3998fe"/><path d="M 697.05 0 A 53.62 53.62 0 0 0 750.67 53.62 L 750.67 0" fill="#086fdd"/><rect x="750.6666666666667" y="0" width="53.61904761904762" height="53.61904761904762" fill="#ffffff"/><rect x="750.67" y="0" width="26.81" height="26.81" fill="#3998fe"/><path d="M 750.67 26.81 A 26.81 26.81 0 0 1  777.4799999999999 0 L 777.4799999999999 26.81" fill="#086fdd"/><rect x="777.48" y="0" width="26.81" height="26.81" fill="#3998fe"/><path d="M 777.48 0 A 26.81 26.81 0 0 1 804.29 26.81 L 777.48 26.81" fill="#3998fe"/><rect x="750.67" y="26.81" width="26.81" height="26.81" fill="#086fdd"/><path d="M 750.67 26.81 A 26.81 26.81 0 0 0 777.4799999999999 53.62 L 777.4799999999999 26.81" fill="#3998fe"/><rect x="777.48" y="26.81" width="26.81" height="26.81" fill="#086fdd"/><path d="M 777.48 53.62 A 26.81 26.81 0 0 0 804.29 26.81 L 777.48 26.81" fill="#3998fe"/><rect x="804.29" y="0" width="53.62" height="53.62" fill="#086fdd"/><path d="M 804.29 0 A 53.62 53.62 0 0 0 857.91 53.62 L 857.91 0" fill="#086fdd"/><rect x="857.9047619047619" y="0" width="53.61904761904762" height="53.61904761904762" fill="#ffffff"/><rect x="857.9" y="0" width="26.81" height="26.81" fill="#086fdd"/><polygon points="884.7099999999999,0 884.7099999999999,26.81 857.9,26.81" fill="#3998fe"/><rect x="884.71" y="0" width="26.81" height="26.81" fill="#3998fe"/><polygon points="884.71,0 911.52,0 884.71,26.81" fill="#246794"/><rect x="857.9" y="26.81" width="26.81" height="26.81" fill="#3998fe"/><polygon points="857.9,26.81 884.7099999999999,26.81 884.7099999999999,53.62" fill="#3998fe"/><rect x="884.71" y="26.81" width="26.81" height="26.81" fill="#086fdd"/><polygon points="884.71,26.81 911.52,53.62 884.71,53.62" fill="#3998fe"/><rect x="911.5238095238095" y="0" width="53.61904761904762" height="53.61904761904762" fill="#ffffff"/><rect x="911.52" y="0" width="26.81" height="26.81" fill="#246794"/><polygon points="938.3299999999999,0 938.3299999999999,26.81 911.52,26.81" fill="#3998fe"/><rect x="938.33" y="0" width="26.81" height="26.81" fill="#086fdd"/><polygon points="938.33,0 965.14,0 938.33,26.81" fill="#086fdd"/><rect x="911.52" y="26.81" width="26.81" height="26.81" fill="#246794"/><polygon points="911.52,26.81 938.3299999999999,26.81 938.3299999999999,53.62" fill="#3998fe"/><rect x="938.33" y="26.81" width="26.81" height="26.81" fill="#3998fe"/><polygon points="938.33,26.81 965.14,53.62 938.33,53.62" fill="#3998fe"/><rect x="965.14" y="0" width="53.62" height="53.62" fill="#086fdd"/><rect x="965.14" y="0" width="53.62" height="53.62" fill="#3998fe"/><rect x="1018.7619047619048" y="0" width="53.61904761904762" height="53.61904761904762" fill="#ffffff"/><rect x="1018.76" y="0" width="26.81" height="26.81" fill="#246794"/><path d="M 1018.76 26.81 A 26.81 26.81 0 0 0 1045.57 0 L 1018.76 0" fill="#3998fe"/><rect x="1045.57" y="0" width="26.81" height="26.81" fill="#3998fe"/><path d="M 1045.57 0 A 26.81 26.81 0 0 0 1072.3799999999999 26.81 L 1072.3799999999999 0" fill="#086fdd"/><rect x="1018.76" y="26.81" width="26.81" height="26.81" fill="#086fdd"/><path d="M 1018.76 26.81 A 26.81 26.81 0 0 1 1045.57 53.62 L 1018.76 53.62" fill="#086fdd"/><rect x="1045.57" y="26.81" width="26.81" height="26.81" fill="#3998fe"/><path d="M 1045.57 53.62 A 26.81 26.81 0 0 1  1072.3799999999999 26.81 L 1072.3799999999999 53.62" fill="#086fdd"/><rect x="1072.38" y="0" width="53.62" height="53.62" fill="#246794"/><polygon points="1072.38,0 1126,0 1126,53.62" fill="#086fdd"/><rect x="0" y="53.62" width="53.62" height="53.62" fill="#246794"/><rect x="0" y="53.62" width="53.62" height="53.62" fill="#086fdd"/><rect x="53.62" y="53.62" width="53.62" height="53.62" fill="#3998fe"/><path d="M 53.62 107.24 A 53.62 53.62 0 0 0 107.24 53.62 L 53.62 53.62" fill="#246794"/><rect x="107.24" y="53.62" width="53.62" height="53.62" fill="#086fdd"/><path d="M 107.24 107.24 A 53.62 53.62 0 0 1  160.85999999999999 53.62 L 107.24 107.24 A 53.62 53.62 0 0 0 160.85999999999999 53.62" fill="#246794"/><rect x="160.86" y="53.62" width="53.62" height="53.62" fill="#246794"/><path d="M 160.86 107.24 A 53.62 53.62 0 0 1  214.48000000000002 53.62 L 160.86 107.24 A 53.62 53.62 0 0 0 214.48000000000002 53.62" fill="#246794"/><rect x="214.47619047619048" y="53.61904761904762" width="53.61904761904762" height="53.61904761904762" fill="#ffffff"/><rect x="214.48" y="53.62" width="26.81" height="26.81" fill="#246794"/><path d="M 214.48 80.42999999999999 A 26.81 26.81 0 0 1 241.29 53.62 L 241.29 60.3225 A 20.107499999999998 20.107499999999998 0 0 0 221.18249999999998 80.42999999999999" fill="#086fdd"/><rect x="241.29" y="53.62" width="26.81" height="26.81" fill="#3998fe"/><path d="M 241.29 53.62 A 26.81 26.81 0 0 1 268.09999999999997 80.42999999999999 L 261.3975 80.42999999999999 A 20.107499999999998 20.107499999999998 0 0 0 241.29 60.3225" fill="#086fdd"/><rect x="214.48" y="80.43" width="26.81" height="26.81" fill="#3998fe"/><path d="M 214.48 80.43 A 26.81 26.81 0 0 0 241.29 107.24000000000001 L 241.29 100.53750000000001 A 20.107499999999998 20.107499999999998 0 0 1 221.18249999999998 80.43" fill="#3998fe"/><rect x="241.29" y="80.43" width="26.81" height="26.81" fill="#086fdd"/><path d="M 241.29 107.24000000000001 A 26.81 26.81 0 0 0 268.09999999999997 80.43 L 261.3975 80.43 A 20.107499999999998 20.107499999999998 0 0 1 241.29 100.53750000000001" fill="#3998fe"/><rect x="268.0952380952381" y="53.61904761904762" width="53.61904761904762" height="53.61904761904762" fill="#ffffff"/><rect x="268.1" y="53.62" width="26.81" height="26.81" fill="#246794"/><polygon points="294.91,53.62 294.91,80.42999999999999 268.1,80.42999999999999" fill="#246794"/><rect x="294.9" y="53.62" width="26.81" height="26.81" fill="#246794"/><polygon points="294.9,53.62 321.71,53.62 294.9,80.42999999999999" fill="#246794"/><rect x="268.1" y="80.43" width="26.81" height="26.81" fill="#3998fe"/><polygon points="268.1,80.43 294.91,80.43 294.91,107.24000000000001" fill="#246794"/><rect x="294.9" y="80.43" width="26.81" height="26.81" fill="#086fdd"/><polygon points="294.9,80.43 321.71,107.24000000000001 294.9,107.24000000000001" fill="#086fdd"/><rect x="321.71" y="53.62" width="53.62" height="53.62" fill="#246794"/><path d="M 321.71 53.62 A 53.62 53.62 0 0 1 375.33 107.24 L 321.71 107.24" fill="#246794"/><rect x="375.33333333333337" y="53.61904761904762" width="53.61904761904762" height="53.61904761904762" fill="#ffffff"/><rect x="375.33" y="53.62" width="26.81" height="26.81" fill="#3998fe"/><polygon points="402.14,53.62 402.14,80.42999999999999 375.33,80.42999999999999" fill="#3998fe"/><rect x="402.14" y="53.62" width="26.81" height="26.81" fill="#086fdd"/><polygon points="402.14,53.62 428.95,80.42999999999999 402.14,80.42999999999999" fill="#086fdd"/><rect x="375.33" y="80.43" width="26.81" height="26.81" fill="#086fdd"/><polygon points="375.33,80.43 402.14,80.43 402.14,107.24000000000001" fill="#246794"/><rect x="402.14" y="80.43" width="26.81" height="26.81" fill="#3998fe"/><polygon points="402.14,80.43 428.95,80.43 402.14,107.24000000000001" fill="#3998fe"/><rect x="428.95" y="53.62" width="53.62" height="53.62" fill="#086fdd"/><polygon points="428.95,53.62 482.57,53.62 428.95,107.24" fill="#3998fe"/><rect x="482.57" y="53.62" width="53.62" height="53.62" fill="#3998fe"/><path d="M 482.57 107.24 A 53.62 53.62 0 0 0 536.1899999999999 53.62 L 482.57 53.62" fill="#246794"/><rect x="536.19" y="53.62" width="53.62" height="53.62" fill="#3998fe"/><path d="M 536.19 107.24 A 53.62 53.62 0 0 1  589.8100000000001 53.62 L 589.8100000000001 107.24" fill="#086fdd"/><rect x="589.8095238095239" y="53.61904761904762" width="53.61904761904762" height="53.61904761904762" fill="#ffffff"/><rect x="589.81" y="53.62" width="26.81" height="26.81" fill="#246794"/><path d="M 589.81 80.42999999999999 A 26.81 26.81 0 0 1 616.6199999999999 53.62 L 616.6199999999999 60.3225 A 20.107499999999998 20.107499999999998 0 0 0 596.5124999999999 80.42999999999999" fill="#3998fe"/><rect x="616.62" y="53.62" width="26.81" height="26.81" fill="#246794"/><path d="M 616.62 53.62 A 26.81 26.81 0 0 1 643.43 80.42999999999999 L 636.7275 80.42999999999999 A 20.107499999999998 20.107499999999998 0 0 0 616.62 60.3225" fill="#246794"/><rect x="589.81" y="80.43" width="26.81" height="26.81" fill="#3998fe"/><path d="M 589.81 80.43 A 26.81 26.81 0 0 0 616.6199999999999 107.24000000000001 L 616.6199999999999 100.53750000000001 A 20.107499999999998 20.107499999999998 0 0 1 596.5124999999999 80.43" fill="#246794"/><rect x="616.62" y="80.43" width="26.81" height="26.81" fill="#3998fe"/><path d="M 616.62 107.24000000000001 A 26.81 26.81 0 0 0 643.43 80.43 L 636.7275 80.43 A 20.107499999999998 20.107499999999998 0 0 1 616.62 100.53750000000001" fill="#086fdd"/><rect x="643.4285714285714" y="53.61904761904762" width="53.61904761904762" height="53.61904761904762" fill="#ffffff"/><rect x="643.43" y="53.62" width="26.81" height="26.81" fill="#086fdd"/><path d="M 643.43 53.62 A 26.81 26.81 0 0 0 670.2399999999999 80.42999999999999 L 670.2399999999999 53.62" fill="#246794"/><rect x="670.24" y="53.62" width="26.81" height="26.81" fill="#3998fe"/><path d="M 670.24 80.42999999999999 A 26.81 26.81 0 0 0 697.05 53.62 L 670.24 53.62" fill="#086fdd"/><rect x="643.43" y="80.43" width="26.81" height="26.81" fill="#086fdd"/><path d="M 643.43 107.24000000000001 A 26.81 26.81 0 0 1  670.2399999999999 80.43 L 670.2399999999999 107.24000000000001" fill="#086fdd"/><rect x="670.24" y="80.43" width="26.81" height="26.81" fill="#246794"/><path d="M 670.24 80.43 A 26.81 26.81 0 0 1 697.05 107.24000000000001 L 670.24 107.24000000000001" fill="#086fdd"/><rect x="697.047619047619" y="53.61904761904762" width="53.61904761904762" height="53.61904761904762" fill="#ffffff"/><rect x="697.05" y="53.62" width="26.81" height="26.81" fill="#086fdd"/><path d="M 697.05 80.42999999999999 A 26.81 26.81 0 0 0 723.8599999999999 53.62 L 697.05 53.62" fill="#3998fe"/><rect x="723.86" y="53.62" width="26.81" height="26.81" fill="#246794"/><path d="M 723.86 53.62 A 26.81 26.81 0 0 0 750.67 80.42999999999999 L 750.67 53.62" fill="#246794"/><rect x="697.05" y="80.43" width="26.81" height="26.81" fill="#3998fe"/><path d="M 697.05 80.43 A 26.81 26.81 0 0 1 723.8599999999999 107.24000000000001 L 697.05 107.24000000000001" fill="#086fdd"/><rect x="723.86" y="80.43" width="26.81" height="26.81" fill="#086fdd"/><path d="M 723.86 107.24000000000001 A 26.81 26.81 0 0 1  750.67 80.43 L 750.67 107.24000000000001" fill="#086fdd"/><rect x="750.6666666666667" y="53.61904761904762" width="53.61904761904762" height="53.61904761904762" fill="#ffffff"/><rect x="750.67" y="53.62" width="26.81" height="26.81" fill="#086fdd"/><path d="M 750.67 80.42999999999999 A 26.81 26.81 0 0 0 777.4799999999999 53.62 L 750.67 53.62" fill="#086fdd"/><rect x="777.48" y="53.62" width="26.81" height="26.81" fill="#086fdd"/><path d="M 777.48 53.62 A 26.81 26.81 0 0 0 804.29 80.42999999999999 L 804.29 53.62" fill="#086fdd"/><rect x="750.67" y="80.43" width="26.81" height="26.81" fill="#246794"/><path d="M 750.67 80.43 A 26.81 26.81 0 0 1 777.4799999999999 107.24000000000001 L 750.67 107.24000000000001" fill="#086fdd"/><rect x="777.48" y="80.43" width="26.81" height="26.81" fill="#086fdd"/><path d="M 777.48 107.24000000000001 A 26.81 26.81 0 0 1  804.29 80.43 L 804.29 107.24000000000001" fill="#086fdd"/><rect x="804.29" y="53.62" width="53.62" height="53.62" fill="#086fdd"/><polygon points="804.29,53.62 857.91,53.62 857.91,107.24" fill="#3998fe"/><rect x="857.9" y="53.62" width="53.62" height="53.62" fill="#246794"/><polygon points="857.9,53.62 911.52,53.62 857.9,107.24" fill="#3998fe"/><rect x="911.52" y="53.62" width="53.62" height="53.62" fill="#3998fe"/><rect x="911.52" y="53.62" width="53.62" height="53.62" fill="#086fdd"/><rect x="965.14" y="53.62" width="53.62" height="53.62" fill="#3998fe"/><polygon points="965.14,53.62 1018.76,107.24 965.14,107.24" fill="#246794"/><rect x="1018.7619047619048" y="53.61904761904762" width="53.61904761904762" height="53.61904761904762" fill="#ffffff"/><rect x="1018.76" y="53.62" width="26.81" height="26.81" fill="#3998fe"/><path d="M 1018.76 80.42999999999999 A 26.81 26.81 0 0 0 1045.57 53.62 L 1018.76 53.62" fill="#246794"/><rect x="1045.57" y="53.62" width="26.81" height="26.81" fill="#086fdd"/><path d="M 1045.57 53.62 A 26.81 26.81 0 0 0 1072.3799999999999 80.42999999999999 L 1072.3799999999999 53.62" fill="#246794"/><rect x="1018.76" y="80.43" width="26.81" height="26.81" fill="#086fdd"/><path d="M 1018.76 80.43 A 26.81 26.81 0 0 1 1045.57 107.24000000000001 L 1018.76 107.24000000000001" fill="#3998fe"/><rect x="1045.57" y="80.43" width="26.81" height="26.81" fill="#086fdd"/><path d="M 1045.57 107.24000000000001 A 26.81 26.81 0 0 1  1072.3799999999999 80.43 L 1072.3799999999999 107.24000000000001" fill="#3998fe"/><rect x="1072.3809523809523" y="53.61904761904762" width="53.61904761904762" height="53.61904761904762" fill="#ffffff"/><rect x="1072.38" y="53.62" width="26.81" height="26.81" fill="#086fdd"/><path d="M 1072.38 80.42999999999999 A 26.81 26.81 0 0 1 1099.19 53.62 L 1099.19 60.3225 A 20.107499999999998 20.107499999999998 0 0 0 1079.0825000000002 80.42999999999999" fill="#246794"/><rect x="1099.19" y="53.62" width="26.81" height="26.81" fill="#3998fe"/><path d="M 1099.19 53.62 A 26.81 26.81 0 0 1 1126 80.42999999999999 L 1119.2975000000001 80.42999999999999 A 20.107499999999998 20.107499999999998 0 0 0 1099.19 60.3225" fill="#3998fe"/><rect x="1072.38" y="80.43" width="26.81" height="26.81" fill="#086fdd"/><path d="M 1072.38 80.43 A 26.81 26.81 0 0 0 1099.19 107.24000000000001 L 1099.19 100.53750000000001 A 20.107499999999998 20.107499999999998 0 0 1 1079.0825000000002 80.43" fill="#3998fe"/><rect x="1099.19" y="80.43" width="26.81" height="26.81" fill="#246794"/><path d="M 1099.19 107.24000000000001 A 26.81 26.81 0 0 0 1126 80.43 L 1119.2975000000001 80.43 A 20.107499999999998 20.107499999999998 0 0 1 1099.19 100.53750000000001" fill="#246794"/><rect x="0" y="107.24" width="53.62" height="53.62" fill="#086fdd"/><path d="M 0 107.24 A 53.62 53.62 0 0 1  53.62 160.85999999999999 L 0 107.24 A 53.62 53.62 0 0 0 53.62 160.85999999999999" fill="#3998fe"/><rect x="53.61904761904762" y="107.23809523809524" width="53.61904761904762" height="53.61904761904762" fill="#ffffff"/><rect x="53.62" y="107.24" width="26.81" height="26.81" fill="#246794"/><polygon points="80.42999999999999,107.24 80.42999999999999,134.04999999999998 53.62,134.04999999999998" fill="#3998fe"/><rect x="80.43" y="107.24" width="26.81" height="26.81" fill="#3998fe"/><polygon points="80.43,107.24 107.24000000000001,107.24 80.43,134.04999999999998" fill="#3998fe"/><rect x="53.62" y="134.05" width="26.81" height="26.81" fill="#086fdd"/><polygon points="53.62,134.05 80.42999999999999,134.05 80.42999999999999,160.86" fill="#246794"/><rect x="80.43" y="134.05" width="26.81" height="26.81" fill="#246794"/><polygon points="80.43,134.05 107.24000000000001,160.86 80.43,160.86" fill="#246794"/><rect x="107.23809523809524" y="107.23809523809524" width="53.61904761904762" height="53.61904761904762" fill="#ffffff"/><rect x="107.24" y="107.24" width="26.81" height="26.81" fill="#246794"/><path d="M 107.24 107.24 A 26.81 26.81 0 0 1 134.04999999999998 134.04999999999998 L 107.24 134.04999999999998" fill="#246794"/><rect x="134.05" y="107.24" width="26.81" height="26.81" fill="#3998fe"/><path d="M 134.05 134.04999999999998 A 26.81 26.81 0 0 1  160.86 107.24 L 160.86 134.04999999999998" fill="#246794"/><rect x="107.24" y="134.05" width="26.81" height="26.81" fill="#3998fe"/><path d="M 107.24 160.86 A 26.81 26.81 0 0 0 134.04999999999998 134.05 L 107.24 134.05" fill="#246794"/><rect x="134.05" y="134.05" width="26.81" height="26.81" fill="#086fdd"/><path d="M 134.05 134.05 A 26.81 26.81 0 0 0 160.86 160.86 L 160.86 134.05" fill="#3998fe"/><rect x="160.85714285714286" y="107.23809523809524" width="53.61904761904762" height="53.61904761904762" fill="#ffffff"/><rect x="160.86" y="107.24" width="26.81" height="26.81" fill="#086fdd"/><path d="M 160.86 107.24 A 26.81 26.81 0 0 0 187.67000000000002 134.04999999999998 L 187.67000000000002 107.24" fill="#246794"/><rect x="187.67" y="107.24" width="26.81" height="26.81" fill="#246794"/><path d="M 187.67 134.04999999999998 A 26.81 26.81 0 0 0 214.48 107.24 L 187.67 107.24" fill="#246794"/><rect x="160.86" y="134.05" width="26.81" height="26.81" fill="#3998fe"/><path d="M 160.86 160.86 A 26.81 26.81 0 0 1  187.67000000000002 134.05 L 187.67000000000002 160.86" fill="#3998fe"/><rect x="187.67" y="134.05" width="26.81" height="26.81" fill="#246794"/><path d="M 187.67 134.05 A 26.81 26.81 0 0 1 214.48 160.86 L 187.67 160.86" fill="#246794"/><rect x="214.47619047619048" y="107.23809523809524" width="53.61904761904762" height="53.61904761904762" fill="#ffffff"/><rect x="214.48" y="107.24" width="26.81" height="26.81" fill="#246794"/><path d="M 214.48 134.04999999999998 A 26.81 26.81 0 0 0 241.29 107.24 L 214.48 107.24" fill="#086fdd"/><rect x="241.29" y="107.24" width="26.81" height="26.81" fill="#246794"/><path d="M 241.29 107.24 A 26.81 26.81 0 0 0 268.09999999999997 134.04999999999998 L 268.09999999999997 107.24" fill="#246794"/><rect x="214.48" y="134.05" width="26.81" height="26.81" fill="#3998fe"/><path d="M 214.48 134.05 A 26.81 26.81 0 0 1 241.29 160.86 L 214.48 160.86" fill="#246794"/><rect x="241.29" y="134.05" width="26.81" height="26.81" fill="#3998fe"/><path d="M 241.29 160.86 A 26.81 26.81 0 0 1  268.09999999999997 134.05 L 268.09999999999997 160.86" fill="#086fdd"/><rect x="268.0952380952381" y="107.23809523809524" width="53.61904761904762" height="53.61904761904762" fill="#ffffff"/><rect x="268.1" y="107.24" width="26.81" height="26.81" fill="#246794"/><path d="M 268.1 134.04999999999998 A 26.81 26.81 0 0 1  294.91 107.24 L 294.91 134.04999999999998" fill="#086fdd"/><rect x="294.9" y="107.24" width="26.81" height="26.81" fill="#3998fe"/><path d="M 294.9 107.24 A 26.81 26.81 0 0 1 321.71 134.04999999999998 L 294.9 134.04999999999998" fill="#086fdd"/><rect x="268.1" y="134.05" width="26.81" height="26.81" fill="#086fdd"/><path d="M 268.1 134.05 A 26.81 26.81 0 0 0 294.91 160.86 L 294.91 134.05" fill="#246794"/><rect x="294.9" y="134.05" width="26.81" height="26.81" fill="#086fdd"/><path d="M 294.9 160.86 A 26.81 26.81 0 0 0 321.71 134.05 L 294.9 134.05" fill="#086fdd"/><rect x="321.71" y="107.24" width="53.62" height="53.62" fill="#3998fe"/><polygon points="321.71,107.24 375.33,107.24 375.33,160.85999999999999" fill="#3998fe"/><rect x="375.33" y="107.24" width="53.62" height="53.62" fill="#086fdd"/><rect x="375.33" y="107.24" width="53.62" height="53.62" fill="#3998fe"/><rect x="428.95" y="107.24" width="53.62" height="53.62" fill="#3998fe"/><path d="M 428.95 107.24 A 53.62 53.62 0 0 0 482.57 160.85999999999999 L 482.57 107.24" fill="#3998fe"/><rect x="482.57" y="107.24" width="53.62" height="53.62" fill="#3998fe"/><path d="M 482.57 107.24 A 53.62 53.62 0 0 1  536.1899999999999 160.85999999999999 L 482.57 107.24 A 53.62 53.62 0 0 0 536.1899999999999 160.85999999999999" fill="#3998fe"/><rect x="536.19" y="107.24" width="53.62" height="53.62" fill="#246794"/><path d="M 536.19 107.24 A 53.62 53.62 0 0 1 589.8100000000001 160.85999999999999 L 536.19 160.85999999999999" fill="#246794"/><rect x="589.8095238095239" y="107.23809523809524" width="53.61904761904762" height="53.61904761904762" fill="#ffffff"/><rect x="589.81" y="107.24" width="26.81" height="26.81" fill="#246794"/><path d="M 589.81 134.04999999999998 A 26.81 26.81 0 0 0 616.6199999999999 107.24 L 589.81 107.24" fill="#3998fe"/><rect x="616.62" y="107.24" width="26.81" height="26.81" fill="#3998fe"/><path d="M 616.62 107.24 A 26.81 26.81 0 0 0 643.43 134.04999999999998 L 643.43 107.24" fill="#246794"/><rect x="589.81" y="134.05" width="26.81" height="26.81" fill="#246794"/><path d="M 589.81 134.05 A 26.81 26.81 0 0 1 616.6199999999999 160.86 L 589.81 160.86" fill="#086fdd"/><rect x="616.62" y="134.05" width="26.81" height="26.81" fill="#086fdd"/><path d="M 616.62 160.86 A 26.81 26.81 0 0 1  643.43 134.05 L 643.43 160.86" fill="#086fdd"/><rect x="643.4285714285714" y="107.23809523809524" width="53.61904761904762" height="53.61904761904762" fill="#ffffff"/><rect x="643.43" y="107.24" width="26.81" height="26.81" fill="#3998fe"/><path d="M 643.43 107.24 A 26.81 26.81 0 0 1 670.2399999999999 134.04999999999998 L 643.43 134.04999999999998" fill="#086fdd"/><rect x="670.24" y="107.24" width="26.81" height="26.81" fill="#246794"/><path d="M 670.24 134.04999999999998 A 26.81 26.81 0 0 1  697.05 107.24 L 697.05 134.04999999999998" fill="#086fdd"/><rect x="643.43" y="134.05" width="26.81" height="26.81" fill="#246794"/><path d="M 643.43 160.86 A 26.81 26.81 0 0 0 670.2399999999999 134.05 L 643.43 134.05" fill="#3998fe"/><rect x="670.24" y="134.05" width="26.81" height="26.81" fill="#246794"/><path d="M 670.24 134.05 A 26.81 26.81 0 0 0 697.05 160.86 L 697.05 134.05" fill="#246794"/><rect x="697.05" y="107.24" width="53.62" height="53.62" fill="#086fdd"/><path d="M 697.05 107.24 A 53.62 53.62 0 0 0 750.67 160.85999999999999 L 750.67 107.24" fill="#246794"/><rect x="750.6666666666667" y="107.23809523809524" width="53.61904761904762" height="53.61904761904762" fill="#ffffff"/><rect x="750.67" y="107.24" width="26.81" height="26.81" fill="#086fdd"/><polygon points="777.4799999999999,107.24 777.4799999999999,134.04999999999998 750.67,134.04999999999998" fill="#246794"/><rect x="777.48" y="107.24" width="26.81" height="26.81" fill="#246794"/><polygon points="777.48,107.24 804.29,107.24 777.48,134.04999999999998" fill="#086fdd"/><rect x="750.67" y="134.05" width="26.81" height="26.81" fill="#3998fe"/><polygon points="750.67,134.05 777.4799999999999,134.05 777.4799999999999,160.86" fill="#3998fe"/><rect x="777.48" y="134.05" width="26.81" height="26.81" fill="#246794"/><polygon points="777.48,134.05 804.29,160.86 777.48,160.86" fill="#246794"/><rect x="804.2857142857143" y="107.23809523809524" width="53.61904761904762" height="53.61904761904762" fill="#ffffff"/><rect x="804.29" y="107.24" width="26.81" height="26.81" fill="#086fdd"/><path d="M 804.29 134.04999999999998 A 26.81 26.81 0 0 1 831.0999999999999 107.24 L 831.0999999999999 113.9425 A 20.107499999999998 20.107499999999998 0 0 0 810.9925 134.04999999999998" fill="#086fdd"/><rect x="831.1" y="107.24" width="26.81" height="26.81" fill="#246794"/><path d="M 831.1 107.24 A 26.81 26.81 0 0 1 857.91 134.04999999999998 L 851.2075 134.04999999999998 A 20.107499999999998 20.107499999999998 0 0 0 831.1 113.9425" fill="#086fdd"/><rect x="804.29" y="134.05" width="26.81" height="26.81" fill="#3998fe"/><path d="M 804.29 134.05 A 26.81 26.81 0 0 0 831.0999999999999 160.86 L 831.0999999999999 154.1575 A 20.107499999999998 20.107499999999998 0 0 1 810.9925 134.05" fill="#086fdd"/><rect x="831.1" y="134.05" width="26.81" height="26.81" fill="#3998fe"/><path d="M 831.1 160.86 A 26.81 26.81 0 0 0 857.91 134.05 L 851.2075 134.05 A 20.107499999999998 20.107499999999998 0 0 1 831.1 154.1575" fill="#3998fe"/><rect x="857.9047619047619" y="107.23809523809524" width="53.61904761904762" height="53.61904761904762" fill="#ffffff"/><rect x="857.9" y="107.24" width="26.81" height="26.81" fill="#3998fe"/><polygon points="884.7099999999999,107.24 884.7099999999999,134.04999999999998 857.9,134.04999999999998" fill="#246794"/><rect x="884.71" y="107.24" width="26.81" height="26.81" fill="#3998fe"/><polygon points="884.71,107.24 911.52,107.24 884.71,134.04999999999998" fill="#086fdd"/><rect x="857.9" y="134.05" width="26.81" height="26.81" fill="#086fdd"/><polygon points="857.9,134.05 884.7099999999999,134.05 884.7099999999999,160.86" fill="#3998fe"/><rect x="884.71" y="134.05" width="26.81" height="26.81" fill="#3998fe"/><polygon points="884.71,134.05 911.52,160.86 884.71,160.86" fill="#086fdd"/><rect x="911.52" y="107.24" width="53.62" height="53.62" fill="#086fdd"/><polygon points="965.14,107.24 965.14,160.85999999999999 911.52,160.85999999999999" fill="#086fdd"/><rect x="965.1428571428571" y="107.23809523809524" width="53.61904761904762" height="53.61904761904762" fill="#ffffff"/><rect x="965.14" y="107.24" width="26.81" height="26.81" fill="#3998fe"/><circle cx="978.545" cy="120.645" r="13.405" fill="#086fdd"/><rect x="991.95" y="107.24" width="26.81" height="26.81" fill="#3998fe"/><rect x="991.95" y="107.24" width="26.81" height="26.81" fill="#086fdd"/><rect x="965.14" y="134.05" width="26.81" height="26.81" fill="#3998fe"/><circle cx="978.545" cy="147.455" r="13.405" fill="#3998fe"/><rect x="991.95" y="134.05" width="26.81" height="26.81" fill="#3998fe"/><rect x="991.95" y="134.05" width="26.81" height="26.81" fill="#246794"/><rect x="1018.7619047619048" y="107.23809523809524" width="53.61904761904762" height="53.61904761904762" fill="#ffffff"/><rect x="1018.76" y="107.24" width="26.81" height="26.81" fill="#246794"/><polygon points="1045.57,107.24 1045.57,134.04999999999998 1018.76,134.04999999999998" fill="#3998fe"/><rect x="1045.57" y="107.24" width="26.81" height="26.81" fill="#246794"/><polygon points="1045.57,107.24 1072.3799999999999,107.24 1045.57,134.04999999999998" fill="#3998fe"/><rect x="1018.76" y="134.05" width="26.81" height="26.81" fill="#086fdd"/><polygon points="1018.76,134.05 1045.57,134.05 1045.57,160.86" fill="#3998fe"/><rect x="1045.57" y="134.05" width="26.81" height="26.81" fill="#3998fe"/><polygon points="1045.57,134.05 1072.3799999999999,160.86 1045.57,160.86" fill="#086fdd"/><rect x="1072.3809523809523" y="107.23809523809524" width="53.61904761904762" height="53.61904761904762" fill="#ffffff"/><rect x="1072.38" y="107.24" width="26.81" height="26.81" fill="#246794"/><polygon points="1099.19,107.24 1099.19,134.04999999999998 1072.38,134.04999999999998" fill="#246794"/><rect x="1099.19" y="107.24" width="26.81" height="26.81" fill="#246794"/><polygon points="1099.19,107.24 1126,134.04999999999998 1099.19,134.04999999999998" fill="#246794"/><rect x="1072.38" y="134.05" width="26.81" height="26.81" fill="#3998fe"/><polygon points="1072.38,134.05 1099.19,134.05 1099.19,160.86" fill="#3998fe"/><rect x="1099.19" y="134.05" width="26.81" height="26.81" fill="#3998fe"/><polygon points="1099.19,134.05 1126,134.05 1099.19,160.86" fill="#086fdd"/><rect x="0" y="160.86" width="53.62" height="53.62" fill="#3998fe"/><rect x="0" y="160.86" width="53.62" height="53.62" fill="#246794"/><rect x="53.61904761904762" y="160.85714285714286" width="53.61904761904762" height="53.61904761904762" fill="#ffffff"/><rect x="53.62" y="160.86" width="26.81" height="26.81" fill="#086fdd"/><path d="M 53.62 187.67000000000002 A 26.81 26.81 0 0 1 80.42999999999999 160.86 L 80.42999999999999 167.5625 A 20.107499999999998 20.107499999999998 0 0 0 60.3225 187.67000000000002" fill="#086fdd"/><rect x="80.43" y="160.86" width="26.81" height="26.81" fill="#086fdd"/><path d="M 80.43 160.86 A 26.81 26.81 0 0 1 107.24000000000001 187.67000000000002 L 100.53750000000001 187.67000000000002 A 20.107499999999998 20.107499999999998 0 0 0 80.43 167.5625" fill="#246794"/><rect x="53.62" y="187.67" width="26.81" height="26.81" fill="#086fdd"/><path d="M 53.62 187.67 A 26.81 26.81 0 0 0 80.42999999999999 214.48 L 80.42999999999999 207.77749999999997 A 20.107499999999998 20.107499999999998 0 0 1 60.3225 187.67" fill="#3998fe"/><rect x="80.43" y="187.67" width="26.81" height="26.81" fill="#246794"/><path d="M 80.43 214.48 A 26.81 26.81 0 0 0 107.24000000000001 187.67 L 100.53750000000001 187.67 A 20.107499999999998 20.107499999999998 0 0 1 80.43 207.77749999999997" fill="#246794"/><rect x="107.24" y="160.86" width="53.62" height="53.62" fill="#246794"/><path d="M 107.24 160.86 A 53.62 53.62 0 0 1  160.85999999999999 214.48000000000002 L 107.24 160.86 A 53.62 53.62 0 0 0 160.85999999999999 214.48000000000002" fill="#086fdd"/><rect x="160.85714285714286" y="160.85714285714286" width="53.61904761904762" height="53.61904761904762" fill="#ffffff"/><rect x="160.86" y="160.86" width="26.81" height="26.81" fill="#086fdd"/><circle cx="174.26500000000001" cy="174.26500000000001" r="13.405" fill="#086fdd"/><rect x="187.67" y="160.86" width="26.81" height="26.81" fill="#246794"/><rect x="187.67" y="160.86" width="26.81" height="26.81" fill="#3998fe"/><rect x="160.86" y="187.67" width="26.81" height="26.81" fill="#246794"/><circle cx="174.26500000000001" cy="201.075" r="13.405" fill="#246794"/><rect x="187.67" y="187.67" width="26.81" height="26.81" fill="#246794"/><rect x="187.67" y="187.67" width="26.81" height="26.81" fill="#246794"/><rect x="214.48" y="160.86" width="53.62" height="53.62" fill="#246794"/><rect x="214.48" y="160.86" width="53.62" height="53.62" fill="#3998fe"/><rect x="268.1" y="160.86" width="53.62" height="53.62" fill="#246794"/><rect x="268.1" y="160.86" width="53.62" height="53.62" fill="#3998fe"/><rect x="321.71" y="160.86" width="53.62" height="53.62" fill="#3998fe"/><polygon points="321.71,160.86 375.33,214.48000000000002 321.71,214.48000000000002" fill="#086fdd"/><rect x="375.33" y="160.86" width="53.62" height="53.62" fill="#086fdd"/><path d="M 375.33 160.86 A 53.62 53.62 0 0 0 428.95 214.48000000000002 L 428.95 160.86" fill="#086fdd"/><rect x="428.95238095238096" y="160.85714285714286" width="53.61904761904762" height="53.61904761904762" fill="#ffffff"/><rect x="428.95" y="160.86" width="26.81" height="26.81" fill="#086fdd"/><circle cx="442.35499999999996" cy="174.26500000000001" r="13.405" fill="#086fdd"/><rect x="455.76" y="160.86" width="26.81" height="26.81" fill="#246794"/><rect x="455.76" y="160.86" width="26.81" height="26.81" fill="#246794"/><rect x="428.95" y="187.67" width="26.81" height="26.81" fill="#3998fe"/><circle cx="442.35499999999996" cy="201.075" r="13.405" fill="#3998fe"/><rect x="455.76" y="187.67" width="26.81" height="26.81" fill="#246794"/><rect x="455.76" y="187.67" width="26.81" height="26.81" fill="#086fdd"/><rect x="482.57142857142856" y="160.85714285714286" width="53.61904761904762" height="53.61904761904762" fill="#ffffff"/><rect x="482.57" y="160.86" width="26.81" height="26.81" fill="#3998fe"/><path d="M 482.57 187.67000000000002 A 26.81 26.81 0 0 1 509.38 160.86 L 509.38 167.5625 A 20.107499999999998 20.107499999999998 0 0 0 489.2725 187.67000000000002" fill="#246794"/><rect x="509.38" y="160.86" width="26.81" height="26.81" fill="#246794"/><path d="M 509.38 160.86 A 26.81 26.81 0 0 1 536.1899999999999 187.67000000000002 L 529.4875 187.67000000000002 A 20.107499999999998 20.107499999999998 0 0 0 509.38 167.5625" fill="#246794"/><rect x="482.57" y="187.67" width="26.81" height="26.81" fill="#246794"/><path d="M 482.57 187.67 A 26.81 26.81 0 0 0 509.38 214.48 L 509.38 207.77749999999997 A 20.107499999999998 20.107499999999998 0 0 1 489.2725 187.67" fill="#246794"/><rect x="509.38" y="187.67" width="26.81" height="26.81" fill="#086fdd"/><path d="M 509.38 214.48 A 26.81 26.81 0 0 0 536.1899999999999 187.67 L 529.4875 187.67 A 20.107499999999998 20.107499999999998 0 0 1 509.38 207.77749999999997" fill="#246794"/><rect x="536.19" y="160.86" width="53.62" height="53.62" fill="#3998fe"/><polygon points="589.8100000000001,160.86 589.8100000000001,214.48000000000002 536.19,214.48000000000002" fill="#246794"/><rect x="589.81" y="160.86" width="53.62" height="53.62" fill="#3998fe"/><rect x="589.81" y="160.86" width="53.62" height="53.62" fill="#3998fe"/><rect x="643.4285714285714" y="160.85714285714286" width="53.61904761904762" height="53.61904761904762" fill="#ffffff"/><rect x="643.43" y="160.86" width="26.81" height="26.81" fill="#246794"/><polygon points="670.2399999999999,160.86 670.2399999999999,187.67000000000002 643.43,187.67000000000002" fill="#086fdd"/><rect x="670.24" y="160.86" width="26.81" height="26.81" fill="#246794"/><polygon points="670.24,160.86 697.05,187.67000000000002 670.24,187.67000000000002" fill="#246794"/><rect x="643.43" y="187.67" width="26.81" height="26.81" fill="#086fdd"/><polygon points="643.43,187.67 670.2399999999999,187.67 643.43,214.48" fill="#3998fe"/><rect x="670.24" y="187.67" width="26.81" height="26.81" fill="#3998fe"/><polygon points="670.24,187.67 697.05,187.67 697.05,214.48" fill="#086fdd"/><rect x="697.047619047619" y="160.85714285714286" width="53.61904761904762" height="53.61904761904762" fill="#ffffff"/><rect x="697.05" y="160.86" width="26.81" height="26.81" fill="#086fdd"/><path d="M 697.05 160.86 A 26.81 26.81 0 0 1 723.8599999999999 187.67000000000002 L 697.05 187.67000000000002" fill="#246794"/><rect x="723.86" y="160.86" width="26.81" height="26.81" fill="#086fdd"/><path d="M 723.86 187.67000000000002 A 26.81 26.81 0 0 1  750.67 160.86 L 750.67 187.67000000000002" fill="#246794"/><rect x="697.05" y="187.67" width="26.81" height="26.81" fill="#3998fe"/><path d="M 697.05 214.48 A 26.81 26.81 0 0 0 723.8599999999999 187.67 L 697.05 187.67" fill="#086fdd"/><rect x="723.86" y="187.67" width="26.81" height="26.81" fill="#246794"/><path d="M 723.86 187.67 A 26.81 26.81 0 0 0 750.67 214.48 L 750.67 187.67" fill="#246794"/><rect x="750.6666666666667" y="160.85714285714286" width="53.61904761904762" height="53.61904761904762" fill="#ffffff"/><rect x="750.67" y="160.86" width="26.81" height="26.81" fill="#086fdd"/><circle cx="764.0749999999999" cy="174.26500000000001" r="13.405" fill="#3998fe"/><rect x="777.48" y="160.86" width="26.81" height="26.81" fill="#3998fe"/><rect x="777.48" y="160.86" width="26.81" height="26.81" fill="#246794"/><rect x="750.67" y="187.67" width="26.81" height="26.81" fill="#246794"/><circle cx="764.0749999999999" cy="201.075" r="13.405" fill="#086fdd"/><rect x="777.48" y="187.67" width="26.81" height="26.81" fill="#246794"/><rect x="777.48" y="187.67" width="26.81" height="26.81" fill="#246794"/><rect x="804.29" y="160.86" width="53.62" height="53.62" fill="#3998fe"/><polygon points="857.91,160.86 857.91,214.48000000000002 804.29,214.48000000000002" fill="#086fdd"/><rect x="857.9" y="160.86" width="53.62" height="53.62" fill="#246794"/><polygon points="857.9,160.86 911.52,160.86 857.9,214.48000000000002" fill="#086fdd"/><rect x="911.5238095238095" y="160.85714285714286" width="53.61904761904762" height="53.61904761904762" fill="#ffffff"/><rect x="911.52" y="160.86" width="26.81" height="26.81" fill="#086fdd"/><polygon points="938.3299999999999,160.86 938.3299999999999,187.67000000000002 911.52,187.67000000000002" fill="#3998fe"/><rect x="938.33" y="160.86" width="26.81" height="26.81" fill="#3998fe"/><polygon points="938.33,160.86 965.14,187.67000000000002 938.33,187.67000000000002" fill="#3998fe"/><rect x="911.52" y="187.67" width="26.81" height="26.81" fill="#3998fe"/><polygon points="911.52,187.67 938.3299999999999,187.67 938.3299999999999,214.48" fill="#086fdd"/><rect x="938.33" y="187.67" width="26.81" height="26.81" fill="#3998fe"/><polygon points="938.33,187.67 965.14,187.67 938.33,214.48" fill="#246794"/><rect x="965.14" y="160.86" width="53.62" height="53.62" fill="#086fdd"/><rect x="965.14" y="160.86" width="53.62" height="53.62" fill="#3998fe"/><rect x="1018.76" y="160.86" width="53.62" height="53.62" fill="#3998fe"/><path d="M 1018.76 160.86 A 53.62 53.62 0 0 1 1072.3799999999999 214.48000000000002 L 1018.76 214.48000000000002" fill="#086fdd"/><rect x="1072.3809523809523" y="160.85714285714286" width="53.61904761904762" height="53.61904761904762" fill="#ffffff"/><rect x="1072.38" y="160.86" width="26.81" height="26.81" fill="#3998fe"/><polygon points="1099.19,160.86 1099.19,187.67000000000002 1072.38,187.67000000000002" fill="#3998fe"/><rect x="1099.19" y="160.86" width="26.81" height="26.81" fill="#246794"/><polygon points="1099.19,160.86 1126,160.86 1099.19,187.67000000000002" fill="#086fdd"/><rect x="1072.38" y="187.67" width="26.81" height="26.81" fill="#246794"/><polygon points="1072.38,187.67 1099.19,187.67 1099.19,214.48" fill="#3998fe"/><rect x="1099.19" y="187.67" width="26.81" height="26.81" fill="#246794"/><polygon points="1099.19,187.67 1126,214.48 1099.19,214.48" fill="#246794"/><rect x="0" y="214.47619047619048" width="53.61904761904762" height="53.61904761904762" fill="#ffffff"/><rect x="0" y="214.48" width="26.81" height="26.81" fill="#086fdd"/><polygon points="26.81,214.48 26.81,241.29 0,241.29" fill="#086fdd"/><rect x="26.81" y="214.48" width="26.81" height="26.81" fill="#246794"/><polygon points="26.81,214.48 53.62,241.29 26.81,241.29" fill="#246794"/><rect x="0" y="241.29" width="26.81" height="26.81" fill="#3998fe"/><polygon points="0,241.29 26.81,241.29 0,268.09999999999997" fill="#3998fe"/><rect x="26.81" y="241.29" width="26.81" height="26.81" fill="#3998fe"/><polygon points="26.81,241.29 53.62,241.29 53.62,268.09999999999997" fill="#086fdd"/><rect x="53.61904761904762" y="214.47619047619048" width="53.61904761904762" height="53.61904761904762" fill="#ffffff"/><rect x="53.62" y="214.48" width="26.81" height="26.81" fill="#246794"/><path d="M 53.62 214.48 A 26.81 26.81 0 0 1 80.42999999999999 241.29 L 53.62 241.29" fill="#246794"/><rect x="80.43" y="214.48" width="26.81" height="26.81" fill="#246794"/><path d="M 80.43 241.29 A 26.81 26.81 0 0 1  107.24000000000001 214.48 L 107.24000000000001 241.29" fill="#3998fe"/><rect x="53.62" y="241.29" width="26.81" height="26.81" fill="#3998fe"/><path d="M 53.62 268.09999999999997 A 26.81 26.81 0 0 0 80.42999999999999 241.29 L 53.62 241.29" fill="#086fdd"/><rect x="80.43" y="241.29" width="26.81" height="26.81" fill="#086fdd"/><path d="M 80.43 241.29 A 26.81 26.81 0 0 0 107.24000000000001 268.09999999999997 L 107.24000000000001 241.29" fill="#246794"/><rect x="107.24" y="214.48" width="53.62" height="53.62" fill="#3998fe"/><path d="M 107.24 268.09999999999997 A 53.62 53.62 0 0 0 160.85999999999999 214.48 L 107.24 214.48" fill="#246794"/><rect x="160.86" y="214.48" width="53.62" height="53.62" fill="#3998fe"/><polygon points="160.86,214.48 214.48000000000002,268.09999999999997 160.86,268.09999999999997" fill="#3998fe"/><rect x="214.48" y="214.48" width="53.62" height="53.62" fill="#086fdd"/><rect x="214.48" y="214.48" width="53.62" height="53.62" fill="#246794"/><rect x="268.0952380952381" y="214.47619047619048" width="53.61904761904762" height="53.61904761904762" fill="#ffffff"/><rect x="268.1" y="214.48" width="26.81" height="26.81" fill="#086fdd"/><path d="M 268.1 241.29 A 26.81 26.81 0 0 1  294.91 214.48 L 294.91 241.29" fill="#086fdd"/><rect x="294.9" y="214.48" width="26.81" height="26.81" fill="#246794"/><path d="M 294.9 214.48 A 26.81 26.81 0 0 1 321.71 241.29 L 294.9 241.29" fill="#3998fe"/><rect x="268.1" y="241.29" width="26.81" height="26.81" fill="#086fdd"/><path d="M 268.1 241.29 A 26.81 26.81 0 0 0 294.91 268.09999999999997 L 294.91 241.29" fill="#086fdd"/><rect x="294.9" y="241.29" width="26.81" height="26.81" fill="#3998fe"/><path d="M 294.9 268.09999999999997 A 26.81 26.81 0 0 0 321.71 241.29 L 294.9 241.29" fill="#3998fe"/><rect x="321.7142857142857" y="214.47619047619048" width="53.61904761904762" height="53.61904761904762" fill="#ffffff"/><rect x="321.71" y="214.48" width="26.81" height="26.81" fill="#3998fe"/><polygon points="348.52,214.48 348.52,241.29 321.71,241.29" fill="#246794"/><rect x="348.52" y="214.48" width="26.81" height="26.81" fill="#3998fe"/><polygon points="348.52,214.48 375.33,241.29 348.52,241.29" fill="#086fdd"/><rect x="321.71" y="241.29" width="26.81" height="26.81" fill="#3998fe"/><polygon points="321.71,241.29 348.52,241.29 321.71,268.09999999999997" fill="#086fdd"/><rect x="348.52" y="241.29" width="26.81" height="26.81" fill="#246794"/><polygon points="348.52,241.29 375.33,241.29 375.33,268.09999999999997" fill="#246794"/><rect x="375.33" y="214.48" width="53.62" height="53.62" fill="#3998fe"/><rect x="375.33" y="214.48" width="53.62" height="53.62" fill="#086fdd"/><rect x="428.95238095238096" y="214.47619047619048" width="53.61904761904762" height="53.61904761904762" fill="#ffffff"/><rect x="428.95" y="214.48" width="26.81" height="26.81" fill="#3998fe"/><path d="M 428.95 241.29 A 26.81 26.81 0 0 0 455.76 214.48 L 428.95 214.48" fill="#246794"/><rect x="455.76" y="214.48" width="26.81" height="26.81" fill="#086fdd"/><path d="M 455.76 214.48 A 26.81 26.81 0 0 0 482.57 241.29 L 482.57 214.48" fill="#086fdd"/><rect x="428.95" y="241.29" width="26.81" height="26.81" fill="#086fdd"/><path d="M 428.95 241.29 A 26.81 26.81 0 0 1 455.76 268.09999999999997 L 428.95 268.09999999999997" fill="#086fdd"/><rect x="455.76" y="241.29" width="26.81" height="26.81" fill="#3998fe"/><path d="M 455.76 268.09999999999997 A 26.81 26.81 0 0 1  482.57 241.29 L 482.57 268.09999999999997" fill="#246794"/><rect x="482.57" y="214.48" width="53.62" height="53.62" fill="#246794"/><path d="M 482.57 268.09999999999997 A 53.62 53.62 0 0 0 536.1899999999999 214.48 L 482.57 214.48" fill="#246794"/><rect x="536.1904761904761" y="214.47619047619048" width="53.61904761904762" height="53.61904761904762" fill="#ffffff"/><rect x="536.19" y="214.48" width="26.81" height="26.81" fill="#3998fe"/><path d="M 536.19 214.48 A 26.81 26.81 0 0 0 563 241.29 L 563 214.48" fill="#086fdd"/><rect x="563" y="214.48" width="26.81" height="26.81" fill="#086fdd"/><path d="M 563 241.29 A 26.81 26.81 0 0 0 589.81 214.48 L 563 214.48" fill="#246794"/><rect x="536.19" y="241.29" width="26.81" height="26.81" fill="#3998fe"/><path d="M 536.19 268.09999999999997 A 26.81 26.81 0 0 1  563 241.29 L 563 268.09999999999997" fill="#086fdd"/><rect x="563" y="241.29" width="26.81" height="26.81" fill="#246794"/><path d="M 563 241.29 A 26.81 26.81 0 0 1 589.81 268.09999999999997 L 563 268.09999999999997" fill="#3998fe"/><rect x="589.81" y="214.48" width="53.62" height="53.62" fill="#3998fe"/><polygon points="589.81,214.48 643.43,214.48 643.43,268.09999999999997" fill="#086fdd"/><rect x="643.43" y="214.48" width="53.62" height="53.62" fill="#246794"/><rect x="643.43" y="214.48" width="53.62" height="53.62" fill="#246794"/><rect x="697.047619047619" y="214.47619047619048" width="53.61904761904762" height="53.61904761904762" fill="#ffffff"/><rect x="697.05" y="214.48" width="26.81" height="26.81" fill="#3998fe"/><polygon points="723.8599999999999,214.48 723.8599999999999,241.29 697.05,241.29" fill="#086fdd"/><rect x="723.86" y="214.48" width="26.81" height="26.81" fill="#3998fe"/><polygon points="723.86,214.48 750.67,241.29 723.86,241.29" fill="#086fdd"/><rect x="697.05" y="241.29" width="26.81" height="26.81" fill="#086fdd"/><polygon points="697.05,241.29 723.8599999999999,241.29 723.8599999999999,268.09999999999997" fill="#3998fe"/><rect x="723.86" y="241.29" width="26.81" height="26.81" fill="#246794"/><polygon points="723.86,241.29 750.67,241.29 723.86,268.09999999999997" fill="#246794"/><rect x="750.6666666666667" y="214.47619047619048" width="53.61904761904762" height="53.61904761904762" fill="#ffffff"/><rect x="750.67" y="214.48" width="26.81" height="26.81" fill="#3998fe"/><path d="M 750.67 214.48 A 26.81 26.81 0 0 0 777.4799999999999 241.29 L 777.4799999999999 214.48" fill="#086fdd"/><rect x="777.48" y="214.48" width="26.81" height="26.81" fill="#086fdd"/><path d="M 777.48 241.29 A 26.81 26.81 0 0 0 804.29 214.48 L 777.48 214.48" fill="#246794"/><rect x="750.67" y="241.29" width="26.81" height="26.81" fill="#086fdd"/><path d="M 750.67 268.09999999999997 A 26.81 26.81 0 0 1  777.4799999999999 241.29 L 777.4799999999999 268.09999999999997" fill="#246794"/><rect x="777.48" y="241.29" width="26.81" height="26.81" fill="#3998fe"/><path d="M 777.48 241.29 A 26.81 26.81 0 0 1 804.29 268.09999999999997 L 777.48 268.09999999999997" fill="#3998fe"/><rect x="804.29" y="214.48" width="53.62" height="53.62" fill="#3998fe"/><rect x="804.29" y="214.48" width="53.62" height="53.62" fill="#3998fe"/><rect x="857.9" y="214.48" width="53.62" height="53.62" fill="#246794"/><polygon points="911.52,214.48 911.52,268.09999999999997 857.9,268.09999999999997" fill="#3998fe"/><rect x="911.52" y="214.48" width="53.62" height="53.62" fill="#3998fe"/><path d="M 911.52 268.09999999999997 A 53.62 53.62 0 0 0 965.14 214.48 L 911.52 214.48" fill="#086fdd"/><rect x="965.14" y="214.48" width="53.62" height="53.62" fill="#3998fe"/><path d="M 965.14 214.48 A 53.62 53.62 0 0 0 1018.76 268.09999999999997 L 1018.76 214.48" fill="#246794"/><rect x="1018.7619047619048" y="214.47619047619048" width="53.61904761904762" height="53.61904761904762" fill="#ffffff"/><rect x="1018.76" y="214.48" width="26.81" height="26.81" fill="#3998fe"/><polygon points="1045.57,214.48 1045.57,241.29 1018.76,241.29" fill="#086fdd"/><rect x="1045.57" y="214.48" width="26.81" height="26.81" fill="#246794"/><polygon points="1045.57,214.48 1072.3799999999999,214.48 1045.57,241.29" fill="#246794"/><rect x="1018.76" y="241.29" width="26.81" height="26.81" fill="#246794"/><polygon points="1018.76,241.29 1045.57,241.29 1045.57,268.09999999999997" fill="#246794"/><rect x="1045.57" y="241.29" width="26.81" height="26.81" fill="#246794"/><polygon points="1045.57,241.29 1072.3799999999999,268.09999999999997 1045.57,268.09999999999997" fill="#086fdd"/><rect x="1072.38" y="214.48" width="53.62" height="53.62" fill="#246794"/><path d="M 1072.38 214.48 A 53.62 53.62 0 0 1 1126 268.09999999999997 L 1072.38 268.09999999999997" fill="#246794"/></g></svg>